HIERARCHY
ROOT Hips
{
    OFFSET 11.235740661621094 89.73086929321289 -18.027729034423828
    CHANNELS 6 Xposition Yposition Zposition Zrotation Xrotation Yrotation
    JOINT RightUpLeg
    {
        OFFSET -11.235740661621094 0.0 0.0
        CHANNELS 3 Zrotation Xrotation Yrotation
        JOINT RightLeg
        {
            OFFSET 0.0 -44.66155242919922 0.0
            CHANNELS 3 Zrotation Xrotation Yrotation
            JOINT RightFoot
            {
                OFFSET 0.0 -45.06931686401367 0.0
                CHANNELS 3 Zrotation Xrotation Yrotation
                End Site
                {
                    OFFSET 0.0 0.0 18.027729034423828
                }
            }
        }
    }
    JOINT LeftUpLeg
    {
        OFFSET 11.235740661621094 0.0 0.0
        CHANNELS 3 Zrotation Xrotation Yrotation
        JOINT LeftLeg
        {
            OFFSET 0.0 -44.66155242919922 0.0
            CHANNELS 3 Zrotation Xrotation Yrotation
            JOINT LeftFoot
            {
                OFFSET 0.0 -45.06931686401367 0.0
                CHANNELS 3 Zrotation Xrotation Yrotation
                End Site
                {
                    OFFSET 0.0 0.0 18.027729034423828
                }
            }
        }
    }
    JOINT Spine
    {
        OFFSET 0.0 23.317001342773438 0.0
        CHANNELS 3 Zrotation Xrotation Yrotation
        JOINT Spine3
        {
            OFFSET 0.0 24.815975189208984 0.0
            CHANNELS 3 Zrotation Xrotation Yrotation
            JOINT Neck
            {
                OFFSET 0.0 11.172051429748535 0.0
                CHANNELS 3 Zrotation Xrotation Yrotation
                End Site
                {
                    OFFSET 0.0 4.468820571899414 0.0
                }
            }
            JOINT LeftArm
            {
                OFFSET 12.754597663879395 0.0 0.0
                CHANNELS 3 Zrotation Xrotation Yrotation
                JOINT LeftForeArm
                {
                    OFFSET 28.46978759765625 0.0 0.0
                    CHANNELS 3 Zrotation Xrotation Yrotation
                    JOINT LeftHand
                    {
                        OFFSET 16.100976943969727 0.0 0.0
                        CHANNELS 3 Zrotation Xrotation Yrotation
                        End Site
                        {
                            OFFSET 6.4403910636901855 0.0 0.0
                        }
                    }
                }
            }
            JOINT RightArm
            {
                OFFSET -12.754597663879395 0.0 0.0
                CHANNELS 3 Zrotation Xrotation Yrotation
                JOINT RightForeArm
                {
                    OFFSET -28.46978759765625 0.0 0.0
                    CHANNELS 3 Zrotation Xrotation Yrotation
                    JOINT RightHand
                    {
                        OFFSET -16.100976943969727 0.0 0.0
                        CHANNELS 3 Zrotation Xrotation Yrotation
                        End Site
                        {
                            OFFSET -6.4403910636901855 0.0 0.0
                        }
                    }
                }
            }
        }
    }
}
MOTION
Frames: 7
Frame Time: 0.03333333333333333
8.306496602017432e-05 88.75279235839844 -0.0012169559486210346 -1.5442158742308123 -8.524177452632847 -10.521797389273583 0.012810451048568648 18.626681075934624 -0.9593269076907748 0.23549673546443559 9.116419862944882 -0.48765222342512876 0.0 0.0 3.4787316828507215e-16 2.5895810860634176 17.57824996640186 -1.6998711019798018 -1.7437058198403443 11.019882248377968 -0.6909628968187094 -7.951386703658792e-16 -4.969616689786745e-17 -3.975693351829396e-16 1.7805746190200904 23.600743635021757 -1.9199275487432599 3.6038689777488695e-07 -1.8784615577291068e-06 -0.00681494097967449 3.8777590263842323 9.507168731557035 -179.52043419365276 110.42110920719347 -29.900983385614524 -174.68895515424438 -1.6698322322628795e-06 -3.6090435026238378e-06 27.834153497470886 -7.951386703658792e-15 2.2069531490250793e-31 -3.1805546814635168e-15 -118.13374326455194 -37.74852933498391 170.2108586426217 -1.2924226377095844e-06 -2.45700286412986e-07 -45.37850494885817 6.5598940305185035e-15 3.1805546814635168e-15 -1.8207363479456905e-31
0.00012720601807814091 88.75275421142578 -0.0011879601515829563 -1.3491234818242186 -8.536736370037017 -10.479815798962564 -0.1625323713736199 18.553911861344833 -0.9562345036741886 0.21679416259129564 9.005463295270637 -0.47926119084860064 3.975693351829396e-16 -3.1805546814635168e-15 -4.969616689786744e-17 2.203344101506805 17.77337566667648 -1.6535865627327997 -1.3035121655424444 10.902371836429943 -0.7282709685955684 0.0 0.0 2.981770013872047e-16 1.754550681238792 23.56989612541723 -1.9782004125142645 3.3968578089671586e-07 -5.059540885536588e-07 -0.09506482626159382 3.4308983724820648 9.503892038546145 -179.90545782370882 110.46838355815788 -31.114030245704825 -174.43065429047763 -2.7353929614855844e-06 -7.901724069510136e-06 27.661261355128563 7.951386703658792e-15 4.413906298050159e-31 6.3611093629270335e-15 -117.44878805982462 -37.120193108335044 170.14217366516706 2.7752800109476813e-06 -2.842573745655561e-06 -43.3373450830582 6.7586786981099735e-15 3.1805546814635168e-15 -1.8759101766713175e-31
0.00013635885261464864 88.75275421142578 -0.0011892192997038364 -1.1308990289189453 -8.458797582941761 -10.23921168758282 -0.2549089760782635 18.334996577070704 -0.957209563815893 0.07495303162227127 8.932108992137406 -0.45943365934050495 -3.0173187584327256e-34 2.4848083448933725e-17 1.3914926731402886e-15 1.8362820258194414 17.70829493383375 -1.575063126203642 -0.6776918953264814 10.93330780351821 -0.8069099837365477 3.034560579909484e-32 3.1805546814635176e-15 -1.093315671753084e-15 1.8058943432178822 23.44776287395026 -2.041160830832067 -5.972171380539663e-08 -1.6700249301641153e-06 -0.3608040742796861 3.0850406176493435 9.347343319163576 179.82409945064617 110.73464921300122 -31.27698679672526 -174.41072101011275 -5.420170924449689e-06 -6.443985910192894e-07 27.76447326532848 0.0 0.0 -6.3611093629270335e-15 -116.74181374364828 -35.93108863731797 170.30782223508743 1.0766310424792287e-06 -1.1447917020901792e-06 -41.93029715891056 1.7890620083232284e-15 0.0 0.0
0.00014840762014500797 88.75272369384766 -0.001150691183283925 -0.84639624406777 -8.488679100787039 -9.836656492789457 -0.407830671361558 18.44316296790602 -1.0149253416961013 -0.17327421594986087 8.985536339580204 -0.4474116157256162 -4.138037154422024e-33 3.1805546814635176e-15 1.490885006936024e-16 1.7966530665777107 17.616867288642347 -1.6516642066773746 -0.9350964134212181 10.848836494441652 -0.8025407425695489 -7.951386703658792e-16 1.3793457181406746e-33 -1.987846675914698e-16 1.765217930714064 23.467894656161572 -2.153700028169606 -1.9037508766748375e-07 1.4944344472010926e-06 -0.33583349748865565 3.0148615275895874 9.260821628277986 179.64181736129922 110.74720717516122 -31.027071076924127 -174.41302112420277 8.529967554303345e-07 -2.265902694207685e-06 27.530094411222645 4.770832022195275e-15 -3.1805546814635168e-15 -3.1805546814635168e-15 -116.02053630215086 -34.817839953127404 170.48521788375365 2.176674063357447e-06 -5.802224952868414e-08 -39.79515291483596 -5.963540027744095e-16 3.1805546814635168e-15 3.1805546814635168e-15
0.00015685969265177846 88.75273895263672 -0.0011507283197715878 -0.7194816776947275 -8.574176919491778 -9.6072013517574 -0.44243740064715087 18.538020357950963 -1.0719165883412318 -0.2403469021223475 8.982560927760508 -0.4606903080892485 -1.987846675914698e-16 2.5000641141299727e-33 -1.441188840038156e-15 1.7890912079594203 17.565026452149418 -1.7048058317448667 -1.225449708346012 10.660234512314789 -0.7687072789365126 3.975693351829396e-16 2.069018577211012e-33 5.963540027744094e-16 1.6974359457041335 23.68323037397581 -2.2248521778568096 -6.78909991085975e-08 1.8093800696646075e-07 -0.15851176829553817 3.1222853075926658 8.687181329729704 179.58041035249403 110.43091157332474 -28.509307540615833 -174.7726514386409 -4.6209179120659183e-07 4.5750650802538354e-06 27.231681026149722 6.3611093629270335e-15 3.1805546814635168e-15 6.3611093629270335e-15 -115.9078817183804 -33.98324114026127 170.538289552428 -2.270143915092019e-06 5.900967037755038e-06 -39.08201659769735 -5.963540027744094e-16 1.6552148617688095e-32 -3.1805546814635168e-15
0.0001781220780685544 88.75273895263672 -0.001141892746090889 -0.5473110811848967 -8.564895638554637 -9.471621470002226 -0.6398769784421325 18.46778339579044 -1.041585375245959 -0.42675667777533377 9.135012048175811 -0.42638686056275493 0.0 0.0 7.454425034680116e-17 1.6704600124903235 17.571092617593667 -1.7038944698105676 -1.1834151146750795 10.53787565826612 -0.7668957099408229 -7.951386703658792e-16 2.069018577211012e-33 -2.981770013872047e-16 1.4602019744829402 23.788371153769663 -2.1840789438116084 -4.2499264687784103e-07 2.9078519336354676e-06 0.040025819224303656 3.336770712543667 8.586293178352758 178.9563910670174 110.32708953096274 -26.783911371517743 -174.91798971761466 -3.842163143981506e-08 -3.76951821562365e-06 26.944068845260464 3.1805546814635164e-15 -1.7655625192200634e-31 -6.361109362927033e-15 -115.71687479836615 -32.824099746569665 170.73434490941287 1.2801644179887528e-06 -3.272494127694049e-06 -38.36418560196917 1.9878466759146976e-15 -5.517382872562698e-32 -3.180554681463516e-15
0.00016589747974649072 88.75275421142578 -0.0011402317322790623 -0.30057352214581556 -8.576436282672244 -9.469178572998905 -1.0701136690493533 18.446832620092195 -0.9344201145415578 0.040880492687243135 9.142319633694488 -0.4507628996886977 -3.975693351829397e-16 2.484808344893373e-17 -2.484808344893373e-16 1.4633360388702021 17.483721825495106 -1.6620154121428545 -1.5061784909970437 10.651991069634475 -0.6959918103500754 3.975693351829397e-16 4.969616689786746e-17 -1.9878466759146985e-16 1.3574722339427463 23.957648534557 -2.195953754322916 1.4119532719641782e-07 -1.8621406845000032e-07 0.2305153410358304 3.1982674539200473 8.41337547185657 179.08107845272207 109.84984368534575 -24.088470233427405 -174.88610588054905 -6.005769720775714e-06 2.2978721446189306e-06 26.690845936960415 7.951386703658792e-16 2.2069531490250793e-32 3.1805546814635168e-15 -115.69798018665426 -31.383343548776907 170.93254288869434 3.4743645435961557e-06 -1.2927859398212345e-08 -38.26970115108723 -6.7586786981099735e-15 0.0 0.0
